<?xml version="1.0" encoding="utf-8"?>
<!-- Generator: Adobe Illustrator 28.2.0, SVG Export Plug-In . SVG Version: 6.00 Build 0)  -->
<svg version="1.1" id="Layer_1" xmlns="http://www.w3.org/2000/svg" xmlns:xlink="http://www.w3.org/1999/xlink" x="0px" y="0px"
	 viewBox="0 0 302.1 70.9" style="enable-background:new 0 0 302.1 70.9;" xml:space="preserve">
<style type="text/css">
	.st0{fill:#051938;}
	.st1{fill:#E58843;}
</style>
<g>
	<path class="st0" d="M114.8,44.1h-5.6c-0.4-0.8-0.6-2.3-0.8-3.9c-0.3-3.5-1.5-3.8-4-3.8H101v7.7h-5.3V22h11c4.7,0,7.6,2.6,7.6,6.4
		s-2.5,5.6-6.5,6v0.1c3.9,0.2,5.6,1.4,6.1,5.4C113.9,41.7,114.5,43.4,114.8,44.1L114.8,44.1z M101,32.6h4c2.6,0,3.8-1.3,3.8-3.2
		s-1.3-3.1-3.8-3.1h-4.1L101,32.6L101,32.6z"/>
	<path class="st0" d="M129.2,26.7h5.3l-5.8,16.2c-1.5,4.2-4.3,6.9-8.9,6.9c-0.9,0-1.7-0.1-2.3-0.3v-4c0.5,0.2,1.2,0.3,2.2,0.3
		c1.1,0,2.3-0.3,3.2-1.1l-6.8-18h5.5l2.9,9.5c0.3,1.1,0.7,2.4,0.9,3.8h0.1c0.2-1.5,0.6-2.7,0.9-3.8L129.2,26.7L129.2,26.7z
		 M125,41.1c0-0.1,0-0.2,0.1-0.2L125,41.1z"/>
	<path class="st0" d="M140,38.2c0.1,2.1,1.3,2.9,3.2,2.9c1.7,0,2.7-0.5,2.7-1.7c0-1.5-1.8-1.9-4.3-2.3c-3.1-0.6-6.3-1.6-6.3-5.4
		c0-3.7,2.9-5.4,7.4-5.4c5.1,0,7.5,2.1,7.6,5.7h-4.9c-0.1-1.8-1-2.4-2.7-2.4c-1.5,0-2.6,0.5-2.6,1.6c0,1.4,1.6,1.6,4.1,2.1
		c2.9,0.6,6.4,1.5,6.4,5.6s-3.3,5.6-7.4,5.6c-4.9,0-8-2-8-6.2L140,38.2L140,38.2z"/>
	<path class="st0" d="M163.7,30.6h-3.8v7.1c0,2,0.8,2.6,2.1,2.6c0.6,0,1.2-0.1,1.7-0.3v4c-0.6,0.2-1.5,0.4-2.6,0.4
		c-3.5,0-6.2-1.4-6.2-6v-7.7h-2.6v-3.9h2.6v-4h5.1v4h3.8L163.7,30.6L163.7,30.6z"/>
	<path class="st0" d="M183.6,40.5v3.4c-0.7,0.2-1.7,0.4-2.8,0.4c-2.9,0-4-1.6-4-4h-0.2c-0.8,2.4-2.9,4.1-5.7,4.1s-5.2-1.7-5.2-4.8
		c0-4,3.7-4.9,7-5.4c2.6-0.4,3.7-0.9,3.7-2.4c0-1.1-0.7-2.1-2.4-2.1s-2.8,0.9-2.8,2.9h-4.9c0.1-4.2,3-6.4,7.6-6.4s7.4,2.1,7.4,6.2
		v6.4c0,1.4,0.5,1.8,1.2,1.8C183,40.7,183.4,40.6,183.6,40.5z M176.4,36.7v-0.5c-0.9,0.4-1.7,0.5-2.5,0.7c-1.6,0.4-3.1,0.7-3.1,2.2
		c0,1.2,1,1.8,2.2,1.8C174.9,40.9,176.4,39.4,176.4,36.7L176.4,36.7z"/>
	<path class="st0" d="M197.5,21h5.1v23.1h-4.8v-3.9h-0.2c-0.7,2.7-2.9,4.3-5.7,4.3c-4.2,0-7.2-3.8-7.2-9.1s3.2-9.1,7.4-9.1
		c2.6,0,4.6,1.4,5.4,4h0.2c-0.1-1-0.2-2.1-0.2-3.1V21L197.5,21z M197.6,35.3c0-3.1-1.5-5.1-3.9-5.1s-3.8,2-3.8,5.2s1.4,5.1,3.8,5.1
		C196.1,40.5,197.6,38.4,197.6,35.3L197.6,35.3z"/>
	<path class="st0" d="M221.9,25.5h-12.5v6.4h11v2.4h-11v7.2h12.5V44h-15.5V23h15.5V25.5z"/>
	<path class="st0" d="M239.3,32.9v11.2h-2.9V33.4c0-2.6-1.4-3.9-3.5-3.9c-2.7,0-4.6,2.1-4.6,6v8.6h-2.9V27.5h2.8v3.8h0.1
		c0.5-2.7,2.8-4.2,5.3-4.2C236.9,27.2,239.3,29.5,239.3,32.9L239.3,32.9z"/>
	<path class="st0" d="M257.6,36.6h-12.4c0.3,3.4,2.1,5.5,4.9,5.5c2.1,0,3.9-1.1,4.1-2.8h3c-0.5,3.2-3.6,5.1-7.1,5.1
		c-4.8,0-7.9-3.3-7.9-8.6c0-4.9,2.9-8.6,7.9-8.6s7.5,3.7,7.5,8.9V36.6L257.6,36.6z M245.2,34.5h9.3c-0.2-3.3-1.9-5.1-4.4-5.1
		C247.5,29.4,245.6,31.3,245.2,34.5L245.2,34.5z"/>
	<path class="st0" d="M269.1,27.2V30c-0.5-0.2-1-0.2-1.4-0.2c-2.9,0-4.2,2.3-4.2,6.1v8.3h-2.9V27.5h2.8v4h0.1
		c0.3-2.7,2.1-4.3,4.7-4.3C268.6,27.2,268.9,27.2,269.1,27.2L269.1,27.2z"/>
	<path class="st0" d="M279.1,39.8c2.8,0,6.2,0.8,6.2,4.7c0,3.2-2.5,5.1-8.2,5.1s-7.8-1.3-7.8-3.8c0-2,1.4-3,3.4-3.5v-0.1
		c-2.1-0.2-3.3-1.2-3.3-2.8c0-1.8,1.4-2.6,3-2.9c-1.2-1-1.8-2.3-1.8-3.9c0-3,2.3-5.3,6.4-5.3c1.7,0,3.2,0.4,4.3,1.2
		c0.1-1.4,0.8-2.6,2.7-2.6c0.4,0,0.8,0.1,1.1,0.1v2.5c-0.3-0.1-0.7-0.2-1.1-0.2c-0.8,0-1.4,0.2-1.8,0.7c0.9,0.9,1.4,2.1,1.4,3.4
		c0,3-2.5,5.4-6.4,5.4c-1.5,0-2.8-0.3-3.8-0.9c-0.6,0.2-1,0.7-1,1.4c0,0.9,0.7,1.4,2.5,1.4L279.1,39.8L279.1,39.8z M282.4,44.7
		c0-1.8-1.6-2.5-3.8-2.5h-2.3c-2.9,0-4,1.1-4,2.6c0,2.1,2,2.6,4.9,2.6C281.1,47.3,282.4,46.3,282.4,44.7L282.4,44.7z M273.4,32.5
		c0,2.1,1.6,3.2,3.6,3.2s3.6-1.1,3.6-3.2c0-2.1-1.7-3.1-3.6-3.1S273.4,30.4,273.4,32.5z"/>
	<path class="st0" d="M299.1,27.5h3l-6,16c-0.7,2-2.8,5.8-7.2,5.8c-0.8,0-1.4-0.1-1.7-0.2v-2.4c0.5,0.2,1.1,0.3,1.7,0.3
		c2.1,0,3.4-1.2,4-2.7l-6.6-16.8h3.2l4,11c0.3,0.8,0.6,1.7,0.8,2.8h0.1c0.2-1.1,0.6-2.1,0.9-2.8L299.1,27.5L299.1,27.5z"/>
	<g>
		<g>
			<path class="st1" d="M30.4,33.8c-1.3,4.8-7.4,5.8-9.6,1.5c-2.1-4,1-9.3,6-8.3C30.5,28.2,31,31.7,30.4,33.8"/>
			<path class="st1" d="M21.8,44c-0.5,3.4-4,4.3-6.1,1.5c-2.3-3-0.6-7.3,2.6-6.8c0.1,0,0.3,0.1,0.4,0.1C21.4,39.7,22.1,42.4,21.8,44
				"/>
			<path class="st1" d="M37.9,23.3c-0.9,3.5-6.2,4.2-7.8,1c-1.5-2.8,1.1-6.6,4.9-5.8C37.8,19.4,38.3,21.9,37.9,23.3"/>
			<path class="st1" d="M43.6,15.9c-0.3,2.3-3.6,2.9-5.1,0.9s0.2-4.7,2.6-4.3c0.1,0,0.2,0,0.3,0.1C43.3,13.2,43.8,14.9,43.6,15.9"/>
			<path class="st1" d="M16.6,51.7c0.2,2.2-1.3,3-2.9,1.6c-2.1-1.8-2.3-5.2-0.4-5.4c0.3,0,0.5,0,0.7,0.1
				C15.7,48.5,16.5,50.5,16.6,51.7"/>
			<path class="st1" d="M14.5,57.4c0.4,1.1,0.4,2-0.6,1.6c-1.6-0.7-3.3-3.7-2.3-4.2c0.2-0.1,0.3,0,0.5,0
				C13.4,55.2,14.2,56.7,14.5,57.4"/>
			<path class="st1" d="M47.2,10.6c0.2,1.4-1.4,2-2.7,0.9c-1.4-1.2-1-3.1,0.3-3.2c0.2,0,0.4,0,0.5,0.1C46.5,8.8,47.1,9.9,47.2,10.6"
				/>
			<path class="st1" d="M48.7,6.9c0.4,0.7,0,1.2-0.8,0.9c-1.2-0.4-1.9-2.1-1.3-2.4c0.1-0.1,0.3,0,0.4,0C47.9,5.7,48.5,6.5,48.7,6.9"
				/>
			<path class="st1" d="M14.8,61.7c0.5,0.6,0.8,1.2,0.5,1.2c-0.9-0.1-3.1-2.5-2.8-2.9c0.1-0.1,0.1,0,0.2,0
				C13.6,60.2,14.7,61.5,14.8,61.7"/>
			<path class="st1" d="M16.9,64.9c0.9,0.7,0.9,0.8,0.9,0.8c-0.3,0.1-2.7-1.7-2.7-2c0,0,0,0,0.1,0C15.5,63.9,16.4,64.5,16.9,64.9"/>
			<path class="st1" d="M48.5,4.3C48.9,4.7,48.9,5,48.7,5c-0.6,0-2-1.4-1.8-1.6c0,0,0.1,0,0.2,0C47.6,3.5,48.2,4,48.5,4.3"/>
			<path class="st1" d="M19.8,67.2c0.6,0.3,0.9,0.5,1,0.5c-0.2,0-2.2-1.1-2.4-1.3l0,0C18.5,66.5,19,66.7,19.8,67.2"/>
			<path class="st1" d="M47.1,2.6c0.1,0.1,0.6,0.3,0.6,0.4c-0.1,0.1-1.8-0.9-1.9-1l0,0l0,0C46.1,2.1,46.6,2.3,47.1,2.6"/>
		</g>
	</g>
	<g>
		<g>
			<path class="st0" d="M19.2,30.7c-1.2,4.3-5.6,5.9-7.6,2.6c-2.3-3.7,0.6-10.1,5.1-9.1C19.6,25.3,19.8,28.6,19.2,30.7"/>
			<path class="st0" d="M12.1,41.2c-0.2,3.1-2.4,4.4-4.1,2.4c-2.3-2.6-1.6-7.7,1-7.7c0.2,0,0.4,0.1,0.6,0.1
				C11.6,36.8,12.2,39.6,12.1,41.2"/>
			<path class="st0" d="M26.8,20.4c-1.3,3.3-5.6,4.1-6.9,1.4c-1.2-2.6,1.7-6.7,5.2-5.9C27.3,16.7,27.3,19,26.8,20.4"/>
			<path class="st0" d="M33.8,13.3c-1,2.3-4.5,2.8-5.3,0.6c-0.6-1.8,1.5-4.2,3.9-3.7C34.1,10.8,34.2,12.4,33.8,13.3"/>
			<path class="st0" d="M8.9,49.4c0.4,1.7,0,3.1-1.2,2.3C5.8,50.5,4.5,46,6,45.6c0.2,0,0.4,0,0.5,0C7.9,46.2,8.7,48.4,8.9,49.4"/>
			<path class="st0" d="M8.8,55.6c0.6,1,0.9,2,0.4,1.8c-1.1-0.4-3.4-4.1-2.8-4.5c0.1,0,0.2,0,0.2,0C7.4,53.3,8.4,54.8,8.8,55.6"/>
			<path class="st0" d="M39.2,8.5c-0.4,1.6-2.8,1.7-3.5,0.5C35,7.9,36.3,6.1,38,6.4C39.2,6.8,39.4,7.9,39.2,8.5"/>
			<path class="st0" d="M42.6,5.3c0,1-1.2,1.1-1.9,0.4C40,5,40.4,4,41.2,3.9c0.1,0,0.2,0,0.3,0C42.3,4.2,42.6,4.9,42.6,5.3"/>
			<path class="st0" d="M10.9,60.3c1.1,1.2,1,1.3,1,1.3c-0.4,0-3.1-2.9-3-3.1H9C9.4,58.8,10.4,59.9,10.9,60.3"/>
			<path class="st0" d="M14.2,63.9c0.4,0.3,0.8,0.5,1.2,0.9c-0.2,0-2.5-1.8-2.8-2.1l0,0C13.2,63,13.7,63.5,14.2,63.9"/>
			<path class="st0" d="M44.1,3.1c0.2,0.4-0.1,0.6-0.5,0.5c-0.7-0.2-1.1-1.1-0.7-1.3c0.1,0,0.2,0,0.2,0C43.6,2.5,43.9,2.9,44.1,3.1"
				/>
			<path class="st0" d="M44,1.7C44.2,1.9,44.3,2,44.2,2c0,0-0.2,0-0.6-0.3C43.4,1.6,43,1.3,43,1.2c0,0,0,0,0.1,0
				C43.3,1.3,43.7,1.5,44,1.7"/>
			<path class="st0" d="M25.9,54.2c-0.2,2.2-2.8,3-4.6,0.8c-1.7-2.2-0.6-4.8,1.7-4.5c0.1,0,0.2,0,0.3,0.1
				C25.4,51.2,26,53.1,25.9,54.2"/>
			<path class="st0" d="M42.5,37.1c-1.3,4.8-7.6,5.6-10.1,1.4c-2.3-4,0.9-9.4,6.3-8.2C42.8,31.5,43,35.3,42.5,37.1"/>
			<path class="st0" d="M33.1,47c-1,3.6-5.8,4-7.6,0.6c-1.6-2.9,0.6-6.6,4.5-5.8C33,42.8,33.5,45.4,33.1,47"/>
			<path class="st0" d="M49,26.4c-0.5,3.5-4.8,4.4-7,1.4c-2.2-3,0-7,3.4-6.4c0.1,0,0.3,0.1,0.4,0.1C48.5,22.3,49.2,24.9,49,26.4"/>
			<path class="st0" d="M53,18.5c0.2,2.2-2.1,3.1-3.9,1.5c-2.1-1.8-1.5-4.9,0.5-5c0.3,0,0.5,0,0.7,0.1C52.1,15.6,52.9,17.4,53,18.5"
				/>
			<path class="st0" d="M21.7,59.4c0.2,1.2-0.5,2-1.8,1.1c-1.6-1.1-2.2-3.3-1-3.7c0.3-0.1,0.5,0,0.7,0C21,57.3,21.6,58.7,21.7,59.4"
				/>
			<path class="st0" d="M54.6,12.7c0.5,1.3-0.2,2-1.4,1.4c-1.8-0.9-2.5-3.5-1.4-3.8c0.2-0.1,0.4,0,0.5,0
				C53.5,10.7,54.4,12,54.6,12.7"/>
			<path class="st0" d="M54.4,8.6c0.5,0.7,0.6,1.2,0.1,1.1c-1.1-0.2-2.8-2.5-2.3-2.7c0.1,0,0.2,0,0.3,0C53.1,7.2,54,8,54.4,8.6"/>
			<path class="st0" d="M20.2,63.2c0.4,0.6,0.4,1.2-0.2,1c-1-0.3-2.7-2.2-2.1-2.7c0.1-0.1,0.3-0.1,0.4,0
				C19.2,61.8,19.9,62.7,20.2,63.2"/>
			<path class="st0" d="M20.7,66c0.2,0.2,0.7,0.7,0.5,0.7c-0.5,0-2.5-1.6-2.3-1.8c0,0,0.1,0,0.2,0C19.7,65.1,20.6,65.9,20.7,66"/>
			<path class="st0" d="M52.7,5.6c0.6,0.5,0.8,0.8,0.6,0.8c-0.4,0-2.6-1.7-2.4-1.8H51C51.5,4.7,52.3,5.2,52.7,5.6"/>
			<path class="st0" d="M22.6,68c0.7,0.4,0.7,0.4,0.8,0.4c-0.2,0-2.2-1-2.2-1.1c0,0,0,0,0.1,0C21.3,67.3,21.5,67.4,22.6,68"/>
			<path class="st0" d="M50.1,3.5c0.4,0.2,0.8,0.4,0.8,0.5c-0.2,0-2.3-1.2-2.3-1.2l0,0C48.9,2.9,49.6,3.2,50.1,3.5"/>
			<path class="st0" d="M53.3,40.2c-1.2,4.4-6.5,5.6-8.8,1.9c-2.4-3.8,0.7-9.8,5.6-8.7C53.5,34.6,53.9,38.1,53.3,40.2"/>
			<path class="st0" d="M44,49.9c-1.4,3.5-6.1,3.8-7.4,0.6c-1.2-2.9,1.4-6.4,5.1-5.6C44.5,45.9,44.6,48.4,44,49.9"/>
			<path class="st0" d="M58.7,29.3c-0.2,3.2-3.2,4.5-5.3,2.2C50.9,28.9,52,24,55,24.1c0.2,0,0.5,0.1,0.7,0.1
				C58.1,25.1,58.8,27.7,58.7,29.3"/>
			<path class="st0" d="M61,20.9c0.4,2.1-0.8,3.1-2.4,2c-2.1-1.5-2.7-5.5-0.9-5.7c0.2,0,0.4,0,0.6,0.1C59.8,17.9,60.7,19.8,61,20.9"
				/>
			<path class="st0" d="M35.8,56.7c-0.9,2.5-4.4,2.6-5.4,0.1c-0.8-2,0.8-4.2,3.5-3.6C35.9,53.9,36.1,55.7,35.8,56.7"/>
			<path class="st0" d="M29.7,61.5c-0.3,1.5-2.1,1.9-3.2,0.3c-1-1.4-0.2-2.9,1.4-2.7c0.1,0,0.1,0,0.2,0
				C29.5,59.6,29.8,60.8,29.7,61.5"/>
			<path class="st0" d="M60.8,14.7c0.6,1.2,0.5,2-0.3,1.7c-1.5-0.5-3.2-3.8-2.5-4.3c0.1-0.1,0.3,0,0.4,0
				C59.4,12.6,60.4,14,60.8,14.7"/>
			<path class="st0" d="M58.9,10.1c0.6,0.7,0.9,1.3,0.7,1.3c-0.2,0-0.9-0.5-1.6-1.2c-0.7-0.8-1.4-1.7-1.3-1.8h0.1
				C57.4,8.7,58.3,9.5,58.9,10.1"/>
			<path class="st0" d="M26.2,64.8c0.1,0.8-0.4,1.2-1.3,0.6c-1-0.7-1.4-2-0.6-2.2c0.2,0,0.3,0,0.4,0C25.7,63.6,26.1,64.4,26.2,64.8"
				/>
			<path class="st0" d="M25.1,67.2c0.2,0.3,0.3,0.6,0,0.6c-0.6-0.1-1.9-1.3-1.5-1.5c0.1-0.1,0.2,0,0.3,0
				C24.4,66.4,24.9,66.9,25.1,67.2"/>
			<path class="st0" d="M55.9,6.8c0.4,0.3,0.9,0.8,1,0.9c-0.2,0.1-2.7-2-2.8-2c0,0,0,0,0.1,0C54.5,5.7,55.2,6.2,55.9,6.8"/>
			<path class="st0" d="M25.8,69.1c0.5,0.2,0.5,0.3,0.5,0.3c-0.1,0.1-0.7-0.1-1-0.2c-0.8-0.3-0.8-0.4-0.8-0.4h0.1
				C24.9,68.8,25.4,69,25.8,69.1"/>
			<path class="st0" d="M61.8,43.1c-1.3,4.2-5.3,5.5-7,2.4c-2-3.6,0.8-10.2,4.9-9.1C62.4,37.5,62.4,41,61.8,43.1"/>
			<path class="st0" d="M53.1,52.6c-1.7,3.2-5.6,3.7-6.4,1c-0.8-2.7,2.1-6.5,5.3-5.7C54.2,48.8,53.8,51.2,53.1,52.6"/>
			<path class="st0" d="M66.1,31.9c0,2.9-1.8,4.4-3.4,2.9c-2.3-2.2-2-8.1,0.5-8.1c0.1,0,0.3,0.1,0.5,0.1
				C65.5,27.6,66.1,30.3,66.1,31.9"/>
			<path class="st0" d="M66.7,23.2c0.5,1.9,0.2,3.1-0.8,2.5c-1.6-1-3.1-5.8-1.9-6.2c0.1,0,0.3,0,0.4,0C65.5,20.1,66.4,22,66.7,23.2"
				/>
			<path class="st0" d="M44.3,59.2c-1.3,2-4.4,2.6-4.9,0.4c-0.4-1.9,1.7-4.2,4.1-3.6C45.3,56.6,45,58.2,44.3,59.2"/>
			<path class="st0" d="M37.2,63.5c-0.9,1.4-3,1.7-3.3,0.1c-0.3-1.2,1-2.6,2.6-2.2C37.8,61.8,37.6,62.9,37.2,63.5"/>
			<path class="st0" d="M64.3,16.5c0.7,1.1,1,2,0.6,2c-0.7-0.2-3.2-4.2-2.8-4.5c0,0,0.1,0,0.2,0C62.8,14.3,63.8,15.5,64.3,16.5"/>
			<path class="st0" d="M61.5,11.5c0.6,0.7,1.1,1.3,1.1,1.4c-0.3-0.1-2.9-3.2-2.9-3.2l0,0C60,9.9,60.8,10.7,61.5,11.5"/>
			<path class="st0" d="M32.2,66.4c-0.4,0.9-1.6,1.1-2,0.1c-0.4-0.8,0.3-1.7,1.3-1.4C32.4,65.3,32.4,66.1,32.2,66.4"/>
			<path class="st0" d="M30,68.5c0.2,0.4-0.2,0.8-0.8,0.5s-0.8-0.8-0.4-1c0.1,0,0.1,0,0.2-0.1C29.6,67.9,30,68.3,30,68.5"/>
			<path class="st0" d="M28.7,70.1c0.1,0,0.3,0.2,0.2,0.2c-0.2,0.1-1.2-0.3-1.1-0.4h0.1C28.3,69.9,28.7,70.1,28.7,70.1"/>
			<path class="st0" d="M67,45.4c-1.1,3.3-3.4,4.9-4.4,3c-1.3-2.6,1.2-9.8,3.8-8.9C68,40.5,67.6,43.7,67,45.4"/>
			<path class="st0" d="M59.5,55c-1.7,2.5-4.7,3.7-5.1,1.6c-0.4-2.3,2.6-6.8,5.3-6.1C61.2,51.3,60.4,53.6,59.5,55"/>
			<path class="st0" d="M69.6,34c0,2.6-0.7,4.3-1.4,3.5c-1.4-1.3-1.5-8.5-0.1-8.6c0.1,0,0.2,0,0.3,0.1C69.2,29.7,69.6,32.4,69.6,34"
				/>
			<path class="st0" d="M69.3,25c0.3,0.9,0.7,2.6,0.6,2.8c-0.5,0-2.5-6.1-2.1-6.5h0.1C68.2,21.8,68.8,23.6,69.3,25"/>
			<path class="st0" d="M50.8,61.3c-1.6,1.7-4.2,2.4-4.2,0.8s2.6-4.3,4.6-3.8C52.5,58.9,51.7,60.4,50.8,61.3"/>
			<path class="st0" d="M43.9,65.9c-1.4,1-3.3,1.1-3,0c0.2-1,2.2-2.4,3.6-1.9C45.3,64.6,44.6,65.5,43.9,65.9"/>
			<path class="st0" d="M37.7,68.3c-0.8,0.5-2.1,0.6-1.9-0.1c0.1-0.6,1.4-1.4,2.3-1C38.6,67.5,38.3,68,37.7,68.3"/>
			<path class="st0" d="M33.3,69.5c-0.5,0.1-1.2,0-1-0.4c0.2-0.3,0.9-0.5,1.3-0.2C33.8,69.2,33.6,69.4,33.3,69.5"/>
			<path class="st0" d="M69,47.9c-0.9,2.6-1.9,4.3-2.2,3.6c-0.5-1.3,2.3-9.3,3.2-9c0,0,0,0,0.1,0.1C70.4,43.3,69.6,46.1,69,47.9"/>
			<path class="st0" d="M63,57.3c-1.4,1.8-3.1,2.8-3.1,2c-0.1-1.4,3.3-6.1,4.5-5.5C65,54.3,63.9,56.2,63,57.3"/>
			<path class="st0" d="M70.7,39.5c0.2-1.5,0.1-7,0-8.4c0.1,1.1,0.2,2.5,0.3,3.6C70.8,36.2,70.8,38.1,70.7,39.5L70.7,39.5"/>
			<path class="st0" d="M55.6,63.9c-1.5,1.3-3.6,2.1-3.5,1.2c0.1-1.1,3.7-4.4,5.1-4C57.8,61.7,56.8,62.9,55.6,63.9"/>
			<path class="st0" d="M47.9,68c-1.3,0.7-3,1-2.9,0.5c0.2-0.6,3.1-2.5,4.3-2.1C49.8,66.8,48.9,67.5,47.9,68"/>
			<path class="st0" d="M40.7,70.4c-1,0.2-2.3,0.3-2.1,0c0.2-0.3,2.4-1.1,3.2-0.8C42.1,69.8,41.4,70.2,40.7,70.4"/>
			<path class="st0" d="M35.5,70.8c-0.6,0.1-1.3,0.1-1.2,0c0.2-0.2,1.9-0.4,2.1-0.3c0.2,0.1-0.2,0.3-0.7,0.3
				C35.6,70.8,35.6,70.8,35.5,70.8"/>
			<path class="st0" d="M31.7,70.7c-0.3,0-0.6,0-0.6-0.1c0,0,1-0.1,1.2,0c0.1,0-0.1,0.1-0.2,0.1C32,70.7,31.8,70.7,31.7,70.7"/>
			<path class="st0" d="M10.3,28c-1.2,4.1-4.3,5.9-5.5,3.3C3.2,28,5.9,21,9.2,21.9C11.2,22.8,10.8,26.2,10.3,28"/>
			<path class="st0" d="M4.8,38.8c0,2.7-0.9,4.2-2,3.3c-1.9-1.7-1.9-8.3,0-8.5c0.1,0,0.2,0,0.3,0.1C4.3,34.4,4.8,37.1,4.8,38.8"/>
			<path class="st0" d="M17.7,17.8c-1.6,3-5,4.1-5.7,1.8s2.6-6.7,5.3-6C18.9,14.3,18.4,16.5,17.7,17.8"/>
			<path class="st0" d="M25.3,11c-1.6,2.2-4.4,2.5-4.6,0.9c-0.2-1.7,2.7-4.1,4.5-3.7C26.4,8.7,25.9,10.1,25.3,11"/>
			<path class="st0" d="M3.6,47.5C4,49,4.3,50.4,3.8,50.2c-1-0.5-2.9-6.2-2.1-6.4c0,0,0.1,0,0.2,0C2.5,44.2,3.3,46.4,3.6,47.5"/>
			<path class="st0" d="M5.5,54.2c0.9,1.6,1.1,1.9,1.2,2c0,0-0.1,0-0.5-0.6c-0.4-0.7-1.1-1.6-1.5-2.3l-0.6-1
				c-0.2-0.4-0.3-0.6-0.3-0.6l0,0C4,51.7,4.3,52.2,5.5,54.2"/>
			<path class="st0" d="M31.8,6.5c-1.1,1.4-3.2,1.6-3.3,0.5c-0.2-1.1,1.9-2.6,3.2-2.3C32.6,5.1,32.3,6,31.8,6.5"/>
			<path class="st0" d="M36.7,3.7c-0.6,0.9-2,0.9-2.1,0.3c-0.2-0.7,1.1-1.5,1.9-1.4C37.1,2.9,36.9,3.5,36.7,3.7"/>
			<path class="st0" d="M39.8,2c-0.2,0.5-1,0.5-1.2,0.2c-0.2-0.4,0.4-0.9,0.9-0.8C39.9,1.5,39.9,1.8,39.8,2"/>
			<path class="st0" d="M41.2,1c0.1,0.2-0.1,0.3-0.3,0.2c-0.3-0.1-0.4-0.4-0.2-0.5h0.1C41,0.8,41.2,0.9,41.2,1"/>
			<path class="st0" d="M4,25.6c-1.1,3.4-2.6,5.5-3,4.3C0.3,28.1,3,19,4.7,19.7C5.5,20.5,4.6,23.9,4,25.6"/>
			<path class="st0" d="M0.4,36.8c0,0.8,0,3.4-0.1,3.8c-0.1-0.1-0.1-0.2-0.1-0.3c-0.1-0.9-0.2-2-0.3-2.9c0-1.6,0-3.7,0.1-5.3
				c0-0.2,0-0.3,0.1-0.3l0,0C0.3,32.4,0.4,35.3,0.4,36.8"/>
			<path class="st0" d="M11,15.6c-1.8,2.6-4,3.8-4.1,2.4c-0.3-2.1,3.7-6.8,5.3-6.3C13,12.3,11.7,14.5,11,15.6"/>
			<path class="st0" d="M18.9,9c-1.9,1.9-3.9,2.4-3.8,1.3c0.1-1.4,3.7-4.1,5-3.8C20.7,6.9,19.6,8.3,18.9,9"/>
			<path class="st0" d="M26.1,4.9c-1.5,1.2-3.1,1.4-3,0.7c0.1-0.9,3-2.5,4-2.2C27.7,3.7,26.1,4.8,26.1,4.9"/>
			<path class="st0" d="M32.1,2.4C31,3,29.9,3.2,30,2.8c0.1-0.5,2.2-1.4,2.8-1.2C33.2,1.7,32.1,2.4,32.1,2.4"/>
			<path class="st0" d="M36.4,1.1c-0.8,0.4-1.3,0.4-1.3,0.2c0.1-0.3,1.4-0.7,1.8-0.6C37.1,0.7,36.5,1,36.4,1.1"/>
			<path class="st0" d="M39.2,0.5c-0.5,0.1-0.7,0-0.6-0.1s0.8-0.1,0.9,0l0,0C39.4,0.4,39.2,0.5,39.2,0.5"/>
			<path class="st0" d="M7.9,14c-0.9,1.1-2.4,3-2.7,3.1c0-0.1,0-0.2,0.4-0.8L6.5,15c0.9-1.2,2.2-2.7,3.2-3.9
				c0.4-0.5,0.6-0.6,0.8-0.7l0,0C10.4,10.8,8.5,13.3,7.9,14"/>
			<path class="st0" d="M15.4,7.6c-1.8,1.4-3.2,2.2-3.1,1.7c0.2-0.9,4.7-4.2,5.4-3.9C17.8,5.6,15.8,7.2,15.4,7.6"/>
			<path class="st0" d="M22.9,3.7c-1.8,1-2.8,1.2-2.7,0.9c0-0.5,4-2.4,4.6-2.2l0,0C24.8,2.6,23.3,3.4,22.9,3.7"/>
			<path class="st0" d="M29.4,1.5c-1.7,0.6-2.2,0.6-2.1,0.4c0.3-0.4,3.2-1.2,3.6-1.1l0,0C30.8,1,29.9,1.3,29.4,1.5"/>
			<path class="st0" d="M34.7,0.5c-0.7,0.1-1.4,0.3-1.4,0.2c0.2-0.2,2.4-0.5,2.6-0.4C36,0.3,35.6,0.4,34.7,0.5"/>
			<path class="st0" d="M21.9,2.8c-1.6,0.7-2.4,1-2.4,1c0.3-0.3,4.7-2.1,5-2.1C23.7,2.2,22.8,2.4,21.9,2.8"/>
			<path class="st0" d="M28.5,0.9c-1.3,0.3-2,0.4-2.1,0.4c0.3-0.3,3.7-0.9,4.2-0.9l0,0C30,0.6,29.3,0.7,28.5,0.9"/>
			<path class="st0" d="M34.2,0.1c-0.5,0-1,0.2-1.6,0.1c0.3-0.1,3-0.3,3.3-0.2C35.4,0.1,34.8,0.1,34.2,0.1"/>
		</g>
	</g>
</g>
</svg>
